<?xml version="1.0" encoding="utf-8"?>
<!-- Generator: Adobe Illustrator 26.4.1, SVG Export Plug-In . SVG Version: 6.00 Build 0)  -->
<svg version="1.1" xmlns="http://www.w3.org/2000/svg" xmlns:xlink="http://www.w3.org/1999/xlink" x="0px" y="0px"
	 viewBox="0 0 33 33" style="enable-background:new 0 0 33 33;" xml:space="preserve">
<style type="text/css">
	.st0{display:none;}
	.st1{display:inline;}
	.st2{fill:#649F42;}
	.st3{clip-path:url(#SVGID_00000132778514905951243450000000232760692291076249_);fill:#C1282D;}
	.st4{clip-path:url(#SVGID_00000065043440873240493880000017161883562554629307_);fill:#C1282D;}
	.st5{fill:#C1282D;}
</style>
<g id="Green" class="st0">
	<g class="st1">
		<path class="st2" d="M31.1,16.4c0-2.8-2-4.8-4.9-4.8c-0.6,0-1,0-1.5,0.1c0.3-0.3,0.5-0.7,0.8-1.2c1.4-2.5,0.7-5.3-1.7-6.7
			c-2.5-1.4-5.2-0.7-6.7,1.8c-0.3,0.5-0.5,0.9-0.7,1.3c-0.2-0.4-0.4-0.8-0.7-1.3C14.4,3,11.6,2.3,9.2,3.7C6.7,5.1,6,7.9,7.5,10.4
			c0.3,0.5,0.5,0.9,0.8,1.2c-0.4-0.1-0.9-0.1-1.5-0.1c-2.9,0-4.9,2-4.9,4.8c0,2.8,2,4.8,4.9,4.8c1.6,0,3.2-0.5,4.8-1.2L11,18.8
			c-1.3,0.5-2.7,0.8-4.1,0.8c-2.1,0-3.4-1.3-3.4-3.3c0-2,1.4-3.3,3.4-3.3c1.4,0,2.7,0.3,4,0.8l0.6-1.1c-1.1-0.9-2-1.9-2.7-3.1
			c-1-1.8-0.6-3.6,1.1-4.6c1.8-1,3.5-0.5,4.6,1.3c0.7,1.2,1.1,2.5,1.3,3.9h1.3c0.2-1.4,0.6-2.7,1.3-3.9c1-1.8,2.8-2.3,4.6-1.3
			c1.8,1,2.2,2.8,1.1,4.6c-0.7,1.2-1.7,2.2-2.8,3.1l0.6,1.1c1.3-0.5,2.7-0.8,4.1-0.8c2.1,0,3.4,1.3,3.4,3.3c0,2-1.4,3.3-3.4,3.3
			c-1.4,0-2.8-0.3-4.1-0.9l-0.6,1.1c1.1,0.9,2.1,1.9,2.8,3.2c1,1.8,0.6,3.6-1.1,4.6c-1.8,1-3.5,0.5-4.6-1.3c-0.7-1.2-1.1-2.6-1.3-4
			h-1.3c0.2,1.9,0.5,3.5,1.4,4.9c1.4,2.5,4.2,3.2,6.7,1.8c2.5-1.4,3.2-4.2,1.7-6.7c-0.3-0.5-0.5-0.9-0.8-1.2
			c0.4,0.1,0.9,0.1,1.5,0.1C29.1,21.2,31.1,19.2,31.1,16.4z"/>
		<path class="st2" d="M3.7,28.2L4.5,30c7.5-4.3,11.3-9.4,14-15.6l-1-0.5C14.6,20,10.8,24.4,3.7,28.2z"/>
	</g>
</g>
<g id="Layer_3" class="st0">
	<g class="st1">
		<g>
			<defs>
				<rect id="SVGID_1_" x="0" y="1.5" width="32.9" height="30"/>
			</defs>
			<clipPath id="SVGID_00000008843019089464751460000006256184392597328783_">
				<use xlink:href="#SVGID_1_"  style="overflow:visible;"/>
			</clipPath>
			<path style="clip-path:url(#SVGID_00000008843019089464751460000006256184392597328783_);fill:#C1282D;" d="M12.1,10.9
				c1.6,0,2.9,2,2.8,4.6c-0.1,2.3-1.1,3.3-1.1,3.3c0.8-3.3-0.4-4.2-1.6-4.2s-2.5,0.9-1.9,4.1c0,0-1.1-1.1-1.1-3.2
				C9,12.9,10.4,10.9,12.1,10.9 M12.1,20.5c1.6,0,3.5-1.9,3.7-5.4c0.1-2.9-1.4-5.3-3.7-5.3c-2.4,0-3.9,2.7-3.9,5.6
				C8.1,18.3,10.2,20.5,12.1,20.5 M29.8,16.7c0.6-3.8-0.9-10.1-8.1-12.2c-2.2-3.4-8.4-3.2-10.3,0C5,6.3,2.3,12.9,3,16.9
				c-4.7,5.4-0.4,11.6-0.4,11.6s2.5,3.3,4.2,2.9c0,0,0.9-2.3-1.1-3.3c0,0-7-6.2,0.4-11.1C5.5,16.9,4.5,6.8,14.5,6.4
				c0,0-1.5-0.6-1.1-1.1c1.3-1.3,5.3-1.4,6.3,0.3c0.4,0.8-1.5,0.9-1.5,0.9c10.8,0.3,9.4,10.5,9,10.8c6.2,4.8,0.5,10.5,0.3,11.1
				c-1.9,1.1-0.6,3.2-0.6,3.2c0.5,0.5,3-2,3.7-2.9C30.4,28.6,35.1,21.9,29.8,16.7 M21.2,10.9c1.8,0,3,2,3,4.6c0,2.3-1.1,3.3-1.1,3.3
				c0.6-3.3-0.5-4.2-1.8-4.2c-1.1,0-2.2,0.9-1.6,4.1c0,0-1.4-1.1-1.4-3.2C18.1,12.9,19.8,10.9,21.2,10.9 M21.2,20.5
				c2,0,3.7-1.9,3.7-5.4c0-2.9-1.3-5.3-3.7-5.3c-2.2,0-4.1,2.7-3.9,5.6C17.3,18.3,19.5,20.5,21.2,20.5"/>
		</g>
		<g>
			<defs>
				<rect id="SVGID_00000183936557356482266700000002710118014509984913_" x="0" y="1.5" width="32.9" height="30"/>
			</defs>
			<clipPath id="SVGID_00000131349687399370276460000000225547008219198616_">
				<use xlink:href="#SVGID_00000183936557356482266700000002710118014509984913_"  style="overflow:visible;"/>
			</clipPath>
			<path style="clip-path:url(#SVGID_00000131349687399370276460000000225547008219198616_);fill:#C1282D;" d="M19.3,28.1
				c-0.1,0-0.4,0.1-0.5,0.1L19.3,28.1z M25,24c-0.5-0.5-1,0.1-1,0.1c-0.4,0.6-0.6,1.3-1,1.8c0.3-5.1-1.9-4.2-1.9-4.2s-2,0.1-3.2,3.4
				c-0.9,2.2-1,2.9-1,3.2c-0.1,0-0.3,0-0.4,0c-4.3,0.1-6.3-2.5-6.7-2.9c-0.4-0.5-0.9,0-0.9,0c-0.4,0.4-0.1,0.9-0.1,0.9
				c0.6,0.9,2.7,3.4,8.2,3.4s7.6-3.7,7.8-4.1C25.1,25.2,25.5,24.4,25,24"/>
		</g>
	</g>
</g>
<g id="Layer_2">
	<path class="st5" d="M21.8,25.5c0,0.6,0.1,1.1,0.1,1.6c0,3.2-2.2,5.4-5.3,5.4c-3.2,0-5.3-2.2-5.3-5.7c0-0.5,0-0.5,0-0.7v-0.6
		c-1.7,1.2-2.8,1.6-4.3,1.6c-2.7,0-5.2-2.6-5.2-5.5c0-2.1,1.5-3.9,3.7-4.9L6,16.5c-2.8-1.4-4.2-3-4.2-5.2c0-3,2.3-5.5,5.2-5.5
		c1.2,0,2.7,0.6,3.8,1.4l0.5,0.2c0-0.6-0.1-1.1-0.1-1.5c0-3.2,2.2-5.4,5.3-5.4c3.2,0,5.3,2.2,5.3,5.7v0.7l-0.1,0.5
		c1.7-1.2,2.8-1.6,4.3-1.6c2.7,0,5.2,2.6,5.2,5.5c0,2.1-1.5,3.9-3.7,4.9L27,16.5c2.8,1.4,4.2,3,4.2,5.2c0,3-2.3,5.5-5.2,5.5
		c-1.2,0-2.8-0.5-3.8-1.4L21.8,25.5z M19.1,20.1c2.5,3.6,4.8,5.4,6.9,5.4c1.8,0,3.4-1.8,3.4-3.8c0-2.6-3.1-4.3-8.5-4.7v-0.9
		c5.5-0.5,8.5-2.1,8.5-4.7c0-2-1.6-3.8-3.4-3.8c-2.1,0-4.4,1.8-6.9,5.4l-0.9-0.5c1.2-2.5,1.8-4.6,1.8-6.3c0-2.5-1.4-3.9-3.6-3.9
		s-3.6,1.5-3.6,3.9c0,1.8,0.6,3.8,1.8,6.4l-0.9,0.5C11.5,9.6,9.1,7.8,7,7.8c-1.8,0-3.4,1.8-3.4,3.8c0,2.6,3,4.3,8.5,4.7v0.9
		c-5.4,0.5-8.5,2.1-8.5,4.7c0,2,1.6,3.8,3.4,3.8c2.1,0,4.4-1.8,6.9-5.4l0.9,0.5c-1.2,2.6-1.8,4.7-1.8,6.4c0,2.3,1.4,3.9,3.6,3.9
		s3.6-1.5,3.6-3.9c0-1.7-0.6-3.8-1.8-6.4L19.1,20.1z"/>
</g>
</svg>
