<svg xmlns="http://www.w3.org/2000/svg" viewBox="0 0 133.4 67.06"><title>JOJIBOX-LOGO</title><g id="Layer_2" data-name="Layer 2"><g id="Layer_1-2" data-name="Layer 1"><path d="M0,2.91H0L.66,33.49,0,64.07H0V67H2l74.22-1L97.7,67h2l-.66-33.49L99.72,0h0L76.23,1,0,0Zm97.7,0V64.07H2V2.91H97.7Z"/><path d="M12.15,57.26c-.23-.42-.23-.6-.05-.65,2-.27,4.28-3.17,4.28-8.36V25.32q0-4.28-.28-9.51h4.28l-.1,2.52c-.13,2.3-.23,4.65-.23,7V48.25a9.22,9.22,0,0,1-1.24,4.46,14.05,14.05,0,0,1-3,3.67,5.37,5.37,0,0,1-3.12,1.47C12.52,57.85,12.33,57.67,12.15,57.26Z"/><path d="M63.85,57.26c-.23-.42-.23-.6,0-.65,2-.27,4.27-3.17,4.27-8.36V25.32q0-4.28-.28-9.51h4.28L72,18.33c-.14,2.3-.23,4.65-.23,7V48.25a9.33,9.33,0,0,1-1.24,4.46,14.28,14.28,0,0,1-3,3.67,5.37,5.37,0,0,1-3.12,1.47C64.22,57.85,64,57.67,63.85,57.26Z"/><path d="M81.07,48c.23-4.09.32-7.26.32-9.51V25.32c0-2.25-.09-5.42-.32-9.51h4.32c-.23,4.09-.32,7.26-.32,9.51V38.46c0,2.25.09,5.42.32,9.51Z"/><path d="M37.26,10.88h.14c1.83-.05,3.68-.15,5.52-.15,2.22,0,4.45.15,6.67.15.61,0,1.31-1.17,1.31-1.93,0-.32-.14-.45-.38-.45-.57,0-1.16.07-1.73.1-1.28.08-2.55.17-3.83.24a60.49,60.49,0,0,1-6.72-.34c-.7,0-1.35,1.17-1.35,1.89C36.89,10.7,37,10.88,37.26,10.88Z"/><path d="M29.58,40.53A17,17,0,0,1,27.46,32a16.92,16.92,0,0,1,7.82-14.66,16,16,0,0,1,8.54-2.3,15.88,15.88,0,0,1,14.39,8.18,17.05,17.05,0,0,1,2.11,8.46,16.84,16.84,0,0,1-7.77,14.7A16.08,16.08,0,0,1,44,48.71,16,16,0,0,1,29.58,40.53ZM55,41.17a13.47,13.47,0,0,0,1.79-7.3c0-6.3-2.89-11.58-7.26-14.39a13,13,0,0,0-7-2.06,11.15,11.15,0,0,0-9.7,5.14,13.51,13.51,0,0,0-1.79,7.31c0,6.39,2.85,11.62,7.26,14.38a12.37,12.37,0,0,0,6.94,2.11A11.21,11.21,0,0,0,55,41.17Z"/><path d="M120.93,27.67a5.76,5.76,0,0,0-3.16-1,4.93,4.93,0,0,0-4.32,2.35,6.17,6.17,0,0,0-.8,3.31A7.78,7.78,0,0,0,116,39a5.65,5.65,0,0,0,3.14,1,5,5,0,0,0,4.36-2.37,6.17,6.17,0,0,0,.78-3.31A7.7,7.7,0,0,0,120.93,27.67Z" style="fill:#d72e38"/><path d="M118,21c2.56,0,3.68-.78,3.68-3a3.13,3.13,0,0,0-1.16-2.8,5.35,5.35,0,0,0-3-.78h-2.37v5.27C115.11,20.68,115.83,21,118,21Z" style="fill:#d72e38"/><path d="M133.4,0h-1.54L120.37.25,104.26,0h-1.53V.74h0l.5,32.79-.5,32.79h0v.74l17.64-.24,13,.24h0l-.51-33.53ZM113.14,7.08c.25,0,.59,0,1,0l1.38,0c.7,0,1.33,0,1.91,0a6.72,6.72,0,0,1,3.68.91,2.93,2.93,0,0,1,1.44,2.6,3,3,0,0,1-.8,2.14,3.33,3.33,0,0,1-1.82,1v.11a3.79,3.79,0,0,1,3.77,3.83c0,2.54-2.21,4.28-5.87,4.28-.74,0-1.51,0-2.33-.05l-1.36,0c-.44,0-.78,0-1,0q.12-2.41.12-4.38V11.46Q113.26,9.5,113.14,7.08Zm9.57,53c-1.12-1.68-2.1-3.07-3-4.22l-1.67-2.24-1.78,2.24A31.62,31.62,0,0,0,113.41,60h-1.74l5.77-7.29-5.66-7.54h2.48c1.12,1.67,2.1,3.07,3,4.22l1.4,1.84,1.46-1.84A30.69,30.69,0,0,0,123,45.2h1.74l-5.46,6.91,6,7.92Zm-.28-20a7.78,7.78,0,0,1-10.59-2.71,7.89,7.89,0,0,1-1-3.91,7.77,7.77,0,0,1,3.62-6.76A7.77,7.77,0,0,1,125,29.32a7.91,7.91,0,0,1,1,3.92A7.74,7.74,0,0,1,122.43,40Z" style="fill:#d72e38"/><path d="M120.68,10.93a2.48,2.48,0,0,0-1.06-2.28A4.8,4.8,0,0,0,117,8c-1.44,0-1.88.3-1.88,1.29v4.28h2.37C119.49,13.54,120.68,12.82,120.68,10.93Z" style="fill:#d72e38"/></g></g></svg>