<?xml version="1.0" encoding="utf-8"?>
<!-- Generator: Adobe Illustrator 26.3.1, SVG Export Plug-In . SVG Version: 6.00 Build 0)  -->
<svg version="1.1" xmlns="http://www.w3.org/2000/svg" xmlns:xlink="http://www.w3.org/1999/xlink" x="0px" y="0px"
	 viewBox="0 0 300 42.1" style="enable-background:new 0 0 300 42.1;" xml:space="preserve">
<style type="text/css">
	.st0{fill:#BE2534;}
	.st1{fill:#010101;}
	.st2{fill:#FFFFFF;}
</style>
<g id="Layer_1">
</g>
<g id="Layer_2">
	<g>
		<g>
			<g>
				<g>
					<g>
						<path class="st0" d="M247.1,17.8c-1.2-0.7-2.3-1.2-4.4-1.2c-3.6,0-6.1,2.6-6.1,6.2c0,3.8,2.6,6.2,6.1,6.2c1.5,0,2-0.1,2.6-0.3
							V24H242v-1.9h5.7v8.3c-0.9,0.3-2.3,0.7-4.9,0.7c-5.1,0-8.4-3.2-8.4-8.3c0-4.9,3.6-8.1,8.4-8.1c2.3,0,3.3,0.3,4.6,0.7
							L247.1,17.8z"/>
					</g>
					<g>
						<path class="st0" d="M264,24.4c0,4.5-2.3,6.8-6.2,6.8c-3.9,0-6.2-2.5-6.2-6.8v-9.3h2.3v9.2c0,3.1,1,5.2,3.9,5.2
							c2.9,0,3.9-2.2,3.9-5.2v-9.2h2.3V24.4L264,24.4z"/>
					</g>
					<g>
						<path class="st0" d="M268,14.9h2.3v16H268V14.9z"/>
					</g>
					<g>
						<path class="st0" d="M274.3,14.9h4.8c4.6,0,8.6,2.9,8.6,7.8c0,5.4-3.2,8.1-8.6,8.1h-4.6v-16H274.3z M276.6,28.9h2.5
							c3.9,0,6.1-1.9,6.1-6.1c0-3.8-2.5-6-5.8-6h-2.6v12.1H276.6z"/>
					</g>
					<g>
						<path class="st0" d="M291.1,14.9h8.9v2h-6.7v4.6h6.1v2.2h-6.1V29h6.7v2h-8.9V14.9z"/>
					</g>
				</g>
			</g>
		</g>
		<g>
			<path class="st1" d="M53.9,34.8C53.9,34.8,53.8,34.7,53.9,34.8c0.2-1.8-0.2-3.4-1.2-4.9c-1-1.5-2.6-2.6-4.4-2.9
				c-0.2,0-0.4-0.1-0.6-0.1h-0.1c-1.9-1.8-3.8-2.7-4.5-3c0-0.1,0-0.2,0.1-0.3h0.1c2-0.9,3.2-2.3,3.4-4.2c0.2-1.5-0.2-3.2-1.1-4.3
				c0,0,0,0,0-0.1c0.2-2-0.1-3.8-0.9-5.4c-0.7-1.2-1.6-2.1-2.8-2.7l0,0c-0.3-1.1-1.7-1.9-3.2-1.9c-1.2,0-2.4,0.6-2.9,1.5
				c-1.8,0.6-4.5,2.3-5.5,6.6c-1.2,0.9-2,2.3-2.2,3.8c-0.2,1.7,0.3,3.3,1.5,4.6c-1.1,0-3,0.1-5.1,0.5c0,0,0,0-0.1,0
				c-1.7-1.2-3.8-1.6-5.8-1.1c-0.1,0-0.1,0.1-0.2,0.1c-0.5-0.2-1.1-0.3-1.8-0.4h-0.1c-0.3-0.9-0.8-1.7-1.4-2.4L14.8,18l0,0
				c-0.1-0.7-0.3-1.4-0.4-1.6c-0.2-0.6-0.5-1.4-1.3-2.2c-0.5-0.5-1.1-0.9-1.5-1.1c0.1-0.2,0.1-0.4,0.2-0.5v-0.1c0,0,0.2-2,0.5-3.3
				l0,0C13,4.9,13,4.8,13,4.8l0,0c0-0.4-0.1-0.7-0.4-1c-0.3-0.3-0.8-0.5-1.3-0.5c-0.7,0-1.4,0.4-1.8,1C9.1,4.7,8.9,5.1,8.8,5.6
				C8.1,4.2,7.2,2.4,6.4,1.2c0,0,0,0,0-0.1C6.2,0.7,5.7,0.3,5,0.3c-0.2,0-0.4,0-0.6,0.1C4,0.1,3.6,0,3.2,0C3,0,2.8,0,2.6,0.1
				C1.9,0.3,1.4,1,1.4,1.8C0.9,2,0.5,2.4,0.4,3c-0.1,0.4,0,0.7,0,0.9V4c0,0,0,0.1-0.1,0.1C-0.1,4.7-0.3,6,1.2,9.9l0,0
				c0,0.1,0.1,0.2,0.1,0.3c0.3,0.7,0.8,2,1.5,3.2c0.5,0.7,0.9,1.3,1.3,1.7c-0.3,0.4-0.7,1.1-0.9,1.9C3,18,3.1,19.2,3.5,20.3
				c0.1,0.5,0.3,0.9,0.6,1.3l0,0l0,0v0.1c-0.3,2.2,0.7,4.4,2.5,5.9C7,27.8,7.3,28,7.6,28.2c0.3,0.8,0.8,1.6,1.6,2.3
				c0.5,0.4,1.2,0.8,1.8,1l0,0c0.7,1,1.8,1.7,3.1,2.1c0.3,0.1,0.7,0.2,1,0.2c0,0,0,0,0.1,0.1c0.6,0.6,1.5,1.1,2.5,1.4
				c-0.2,1.3,0,2.3,0.3,3h36.8C54.9,37.2,54.5,35.9,53.9,34.8z"/>
			<polygon points="182.9,38.3 9.3,38.3 7.9,42.1 181.5,42.1 			"/>
			<path d="M111.5,15.4c-4.5,0.9-10.6,4.2-10.5,10.3c0,3.4,4.2,5.5,9.1,5.3c2.7-0.1,5.3-0.6,5.6-0.6l1.8-4.6
				c-2.3,0.4-4.6,0.9-6.5,0.2c-3.2-1.3-1.2-4.6,1-5.7c1-0.5,2.3-0.9,4-0.8c0.7,0,2.3,0,3,1.5l2.2-5.4
				C117.4,14.6,113.5,15,111.5,15.4z M135.9,15.3l-2,5.6h-3.7l2-5.6h-7.1l-5.7,15.3h7.1l1.9-5.1h3.7l-1.9,5.1h7.1l5.7-15.3
				C143,15.3,135.9,15.3,135.9,15.3z M93.7,15.3L88,30.7h7.5l5.7-15.3H93.7z M78.9,15.3l-5.5,8.3c0,0,0.3-4.3,0.4-5.4
				c0.1-0.8,0-2.9-1.9-2.9h-8.6l-5.7,15.3h6.8l4-11.1l-0.9,11.1h6L81,19.8l-4,10.9h6.8l5.7-15.3L78.9,15.3z M209.9,15.3l-3.8,10.5
				c0.1-1.1,0.3-5.3,0.4-7.7c0.1-1-0.2-1.7-0.6-2.2c-0.6-0.6-1.3-0.6-1.3-0.6H196l-5.7,15.3h6.3l4-10.9L200,30.7h10.5l5.7-15.3
				H209.9z M184,15.3l-5.7,15.3h7.5l5.7-15.3H184z M152.6,19.4h8.5l1.5-4h-15.4l-5.8,15.3h15.6l1.5-4.1h-8.7l0.6-1.7h8.1l1.4-3.7
				h-8.1L152.6,19.4z M173.9,15.3h-7.3L161,30.7h14.5l1.9-5h-7.3L173.9,15.3z"/>
			<path class="st2" d="M53.7,38.3h-1.4c0.5-0.6,0.8-1.2,1.1-1.9C53.6,37.1,53.7,37.7,53.7,38.3"/>
			<path class="st2" d="M29.8,22.6c0,0,0.5,0,0.9,0.2c0.5,0.2,1.6,1.2,2.2,1.3c0.1,0,0.4-0.1,0.1-0.3c-0.1-0.1-0.7-0.7-0.5-1l0,0
				c0.1-0.1,0.2-0.2,0.3-0.1c0.8,0.2,1.5,0.3,1.8,0.4c0.1,0,0.3,0,0.3,0c0.1-0.1,0-0.1-0.1-0.1c-1.3-0.3-2.7-0.9-3.7-1.7
				c-1.3-1-2.1-2.6-1.8-4.3c0.2-1.2,0.8-2.2,1.7-3c0.4-0.3,1-0.5,1.2-0.6c0.5-0.2-0.3-0.3-0.4-0.3c-0.2,0-0.2-0.2,0-0.9
				c0.9-2.9,2.9-4.1,4.5-4.7c0.3-0.1,0.7-0.2,1-0.3c0.5-0.1,0.3-0.3-0.2-0.3c0,0-0.2,0-0.1-0.1c0,0,0.1-0.1,0.3-0.2
				c0.1-0.2,0.7-0.4,1.3-0.4c1.1,0,2,0.6,2.1,1.1c0,0,0,0.1-0.1,0.1c-0.2,0-0.4,0.1-0.1,0.2c0.1,0,0.3,0.1,0.7,0.3c0,0,0,0,0.1,0
				c0.8,0.4,3.3,1.9,3.1,6.2l0,0c0,0.1,0,0.3,0,0.4c0,0.1,0,0.2,0,0.4c-0.2,0-0.3,0.1-0.2,0.2c0.1,0.1,0.4,0.5,0.6,0.8
				c0.6,0.9,0.8,2.1,0.7,3.3c-0.2,1.5-1.1,2.4-2.1,3c-0.4,0.2-1.4,0.7-2.6,1c-0.2,0.1-0.1,0.4,1,0.4c0.1,0,0.3,0,0.4,0.1
				c0.1,0.2-0.1,0.7-0.6,1c-0.4,0.3-0.1,0.3,0.5,0.1c0.2,0,0.6,0.2,0.7,0.2c1,0.4,3.4,1.7,5.4,4.2c1.3,1.8,1.7,3.3,1.3,4.2
				c-0.4,0.9-1.5,1-1.5,1l0,0c-4.5,0.7-12.3-0.5-17.7-2.1c-1-0.3-2.4-0.8-3.6-1.3c1.2-2.5,0.7-5.9-1.2-8l-0.1-0.1
				C27.2,22.6,28.8,22.5,29.8,22.6"/>
			<path class="st2" d="M51.7,30.6c0.9,1.3,1.2,2.8,0.9,4.3c-0.3,1.3-0.9,2.4-1.9,3.2c0-1.1-0.2-2.3-0.9-3.3c0.3-0.2,0.6-0.6,0.8-1
				c0.6-1.3,0.1-3.1-1.4-5.4l0,0l-0.1-0.1C50.1,28.8,51.1,29.6,51.7,30.6"/>
			<path class="st2" d="M24.5,23.8c1.8,2,2.1,5.1,0.7,7.4c-1.5,2.5-4.3,3.7-6.9,3c-0.4-0.1-0.7-0.2-1-0.4c0.2,0,0.5-0.1,0.7-0.2
				c2.5-0.7,4.4-3,4.7-5.9c0.2-1.7-0.3-3.5-1.4-4.8c-0.4-0.5-0.8-0.9-1.3-1.2C21.7,21.8,23.4,22.5,24.5,23.8"/>
			<path class="st2" d="M20.4,23.7c0.9,1.1,1.3,2.5,1.1,4c-0.2,2.3-1.8,4.2-3.8,4.8c-1.7,0.5-3.4,0.1-4.5-0.7c2.5,0,4.9-1.8,5.8-4.3
				c0.4-1.3,0.4-2.6-0.1-3.8c-0.2-0.6-0.5-1.1-0.9-1.5C19,22.4,19.8,22.9,20.4,23.7"/>
			<path class="st2" d="M16.4,23.8c0.1-0.5,0.1-1,0.1-1.4c1.2,1.2,1.7,3,1.2,4.8c-0.8,2.4-3.3,3.9-5.7,3.4c-1-0.2-2.1-0.8-2.8-1.7
				c0.4,0.1,0.9,0.1,1.3,0.1c0.8,0,1.6-0.2,2.4-0.5C14.7,27.7,16,25.8,16.4,23.8"/>
			<path class="st2" d="M14.7,19.9L14.7,19.9c0.6,1,0.9,2.4,0.6,3.7c-0.3,1.7-1.4,3.1-2.8,3.7c-1.6,0.7-3.5,0.5-5.1-0.7
				c-1.2-0.9-1.9-2.2-2.1-3.6l0,0c0.1,0.1,0.2,0.2,0.4,0.3c0.9,0.7,2,1,3.3,1c0.8,0,1.4-0.2,1.5-0.2c2.1-0.6,3.2-1.9,3.7-2.9
				C14.4,20.8,14.6,20.3,14.7,19.9"/>
			<path class="st2" d="M1.4,4.7L1.4,4.7c0.1-0.1,0.1-0.1,0.2-0.1c0,0,0,0,0.1,0s0.1,0,0.2,0H2c0.3,0.1,0.6,0.6,0.7,1.1
				c0.2,1.7,1,2.8,1.1,2.9c0,0.1,0.1,0.1,0.2,0.1s0.1,0,0.1,0c0-0.1,0-0.3-0.1-0.4c0,0-0.8-1.1-1-2.7c0-0.7-0.4-1.3-0.9-1.5
				c-0.2,0-0.3-0.1-0.4,0C1.6,3.9,1.6,3.7,1.5,3.7c0-0.3-0.1-0.7,0.4-0.9H2l0,0c0.4,0,0.8,0.1,1.3,1.8c0.4,1.5,1.4,3,1.4,3
				c0,0.1,0.1,0.1,0.2,0.1H5c0.2-0.1,0.2-0.2,0.1-0.4c0,0-1-1.5-1.4-2.9C3.6,3.7,3.3,3,2.8,2.6c0-0.2-0.1-0.4-0.1-0.5
				C2.6,1.9,2.5,1.4,3,1.2c0.1,0,0.2,0,0.3,0c0.4,0,0.6,0.3,0.6,0.6v0.1L6,7c0,0,0,0.1,0.1,0.1c0-0.1,0.1,0,0.2-0.1
				c0.1-0.1,0.2-0.2,0.1-0.3l-2-4.9c0-0.1,0.1-0.2,0.2-0.2c0.1-0.1,0.2-0.1,0.3-0.1c0.3,0,0.5,0.3,0.5,0.3S8.2,7.1,8.7,8
				C8.5,8.4,8.4,8.7,8.3,8.8c0,0.1,0.1,0.3,0.1,0.1C8.6,8.7,8.8,8.4,9,8.2l0,0l0,0l0,0c0.2-0.3,0.6-1.3,0.7-1.6
				c0.1-0.5,0.3-1.2,0.6-1.6c0.2-0.4,0.6-0.5,0.8-0.5c0.3,0,0.6,0.2,0.5,0.3c0,0.1-0.7,4.2-0.7,4.2c-0.2,0.9-0.3,2.1-0.4,2.8
				c0,0.2,0,0.3-0.1,0.5v0.1c0,0,0,0,0,0.1c-0.1,0.6-0.4,1.1-0.4,1.1l0.2,1l0,0c0.1,0.4,0.2,0.9,0.2,1c0.2,0.6,0,0.9,0.1,1
				c0.1,0.2,0.5-0.6,0.6-1c0.1-0.3,0-0.9-0.1-1.4c0.3,0.1,0.7,0.4,1.2,0.8c0.7,0.7,0.9,1.3,1,1.7c0.1,0.5,0.4,1.4,0.4,2
				c0,0.5-0.2,3.3-3.5,4.2c0,0-0.5,0.2-1.2,0.2c-0.7,0-1.7-0.2-2.6-0.8c-1.6-1.1-2.2-3.6-1.9-4.9c0.1-0.6,0.4-1.1,0.6-1.4
				c0.2,0,0.4,0,0.5,0.1l0.1,0.5c0,0.1,0.3,1.3,0.8,1.7c0.3,0.2,0.8,0.2,0.9,0.2c0.1,0,0.5,0,0.6-0.2c0,0,0-0.1,0-0.2
				c0,0-0.1,0-0.2-0.1C7.5,18,7,17.7,6.9,17.3c-0.1-0.2-0.3-1.1-0.4-1.6C7,15.2,7,14.8,6.3,14.9c-0.4,0.1-0.7-0.1-1-0.3
				c-1.3-1-2.7-4.5-2.9-5.1C1.3,6.7,1.1,5.1,1.4,4.7"/>
			<path class="st2" d="M19,35.5c0.2,0,0.5,0,0.7,0c2.4,0,4.7-1.3,6.3-3.5c1.3,0.6,2.8,1.1,3.8,1.4c2.9,0.9,6.4,1.6,9.5,2
				c2,0.3,3.8,0.4,5.5,0.4c1.2,0,2.2-0.1,3.2-0.2c0.1,0,0.3,0,0.6-0.2c0.7,0.8,0.9,1.9,0.8,2.8h-30C19.1,37.8,18.9,36.9,19,35.5"/>
			<path class="st1" d="M35.6,15.1c0.1,0.2,0.3,0.3,0.5,0.3c0.2,0.1,0.3,0.1,0.5,0.1c0,0,0.3,0,0.5,0c0.7,0,1.4-1.2,1.4-2.2
				s-0.1-1.8-0.8-2.2c-0.1,0-0.2-0.1-0.2-0.1c-0.3-0.1-0.7-0.1-1,0c-0.4,0.1-0.7,0.4-0.9,0.7c-0.2,0.3-0.3,0.7-0.4,1.1
				c-0.1,0.4-0.1,0.8-0.1,1.2C35.2,14.4,35.3,14.8,35.6,15.1z M35.4,13.4c0-0.5,0.3-2,1.5-1.8c0.9,0.1,1.1,0.8,1.2,1.3V13
				c0.1,0.6-0.1,1-0.2,1.3c-0.1,0.1-0.1,0.3-0.2,0.4c-0.2,0.3-0.5,0.6-0.7,0.6c0,0,0,0-0.1,0c0.4-0.2,0.7-0.7,0.8-1.4
				c0.1-0.9-0.3-1.6-0.9-1.7c-0.3,0-0.6,0.1-0.8,0.4c0.2,0,0.4,0.2,0.4,0.5c0,0.3-0.2,0.5-0.4,0.5s-0.3-0.1-0.4-0.3
				c0,0.1-0.1,0.3-0.1,0.5c0,0.5,0.1,1,0.3,1.3L35.7,15c-0.2-0.2-0.3-0.6-0.4-1C35.4,13.7,35.4,13.6,35.4,13.4z M42.4,17.7
				c-0.1,0-0.2,0.1-0.1,0.1c0,0,0,0,0,0.1L42.2,18c-0.3,0.1-0.6,0.2-0.9,0.3c-0.7,0.2-1.5,0.2-2.3,0.1c-1.2-0.1-2.5-0.4-3.7-0.9
				c-0.1,0-0.2-0.1-0.3-0.1c-0.1,0-0.1-0.1-0.2-0.1l0,0c-0.2-0.1-0.3,0.1-0.3,0.2c0,0.1,0.1,0.2,0.2,0.3c0.3,0.2,0.6,0.3,1,0.4
				c0.3,0.1,0.5,0.4,0.7,0.6c0.3,0.3,0.5,0.5,0.9,0.7c0.6,0.4,1.4,0.5,2.1,0.4c0.4-0.1,0.7-0.2,1-0.4c0.2-0.1,0.4-0.3,0.6-0.5
				c0.1-0.1,0.3-0.2,0.4-0.3c0.1,0,0.7-0.3,1-0.4c0,0.1,0,0.2,0.1,0.2c0.1,0,0.1-0.1,0.2-0.3c0-0.1,0-0.2,0-0.3
				C42.7,17.9,42.6,17.7,42.4,17.7z M39.8,19.4c-0.3,0.1-0.7,0.1-1,0.1s-0.7-0.1-1-0.2c-0.3-0.2-0.6-0.4-0.9-0.7
				c1.2,0.3,2.5,0.5,3.8,0.3C40.4,19.1,40.1,19.3,39.8,19.4z M35,16.9c0-0.1-0.2-0.1-0.2-0.1c-0.1,0-0.3,0-0.4,0.1
				c-0.3,0.1-0.5,0.5-0.5,0.7v0.1H34l0,0l0,0l0,0c0.1,0,0.1,0,0.1-0.1s0-0.2,0.1-0.2c0.1-0.1,0.2-0.2,0.6-0.3
				C35,17.1,35.1,17,35,16.9z M43.2,12.7c-0.1-0.4-0.3-0.7-0.6-0.9c-0.3-0.2-0.6-0.2-0.9-0.2c-0.1,0-0.2,0-0.2,0.1
				c-0.8,0.3-1.1,1-1.3,1.9c-0.3,1.1,0.1,2.3,0.8,2.5c0.2,0.1,0.4,0.1,0.4,0.1c0.2,0,0.3,0,0.5,0s0.4-0.1,0.5-0.2
				c0.3-0.2,0.6-0.6,0.7-1c0.2-0.4,0.2-0.8,0.3-1.2C43.3,13.5,43.3,13.1,43.2,12.7z M42.9,14.3c0,0.2-0.1,0.4-0.2,0.5
				c-0.2,0.4-0.4,0.7-0.6,0.9c-0.1,0.1-0.2,0.1-0.3,0.1c0.4-0.2,0.7-0.8,0.7-1.4c0.1-0.9-0.3-1.6-0.9-1.7c-0.3,0-0.5,0.1-0.8,0.4
				c0.2,0,0.4,0.2,0.4,0.5c0,0.3-0.2,0.5-0.4,0.5s-0.3-0.1-0.4-0.3c0,0.1-0.1,0.3-0.1,0.5c-0.1,0.6,0.1,1.1,0.4,1.4
				c-0.2-0.1-0.3-0.4-0.4-0.7c0-0.1-0.1-0.3-0.1-0.5c0-0.4,0-0.8,0.2-1.3v-0.1c0.2-0.5,0.6-1.1,1.5-1C43.1,12.4,43,13.9,42.9,14.3z"
				/>
		</g>
	</g>
</g>
</svg>
